<svg xmlns="http://www.w3.org/2000/svg" width="21" height="23" viewBox="0 0 21 23" fill="none">
  <g clip-path="url(#clip0_1_180)">
    <path d="M14.1977 11.7039H10.6263V15.2754C10.6263 15.6682 10.3048 15.9897 9.91199 15.9897C9.51913 15.9897 9.1977 15.6682 9.1977 15.2754V11.7039H5.62627C5.23342 11.7039 4.91199 11.3825 4.91199 10.9897C4.91199 10.5968 5.23342 10.2754 5.62627 10.2754H9.1977V6.70394C9.1977 6.31108 9.51913 5.98965 9.91199 5.98965C10.3048 5.98965 10.6263 6.31108 10.6263 6.70394V10.2754H14.1977C14.5906 10.2754 14.912 10.5968 14.912 10.9897C14.912 11.3825 14.5906 11.7039 14.1977 11.7039Z" fill="#828282"/>
  </g>
  <defs>
    <clipPath id="clip0_1_180">
      <rect width="24" height="24" fill="white" transform="translate(0.534668 0.543488)"/>
    </clipPath>
  </defs>
</svg>