<svg xmlns="http://www.w3.org/2000/svg" width="24" height="24" viewBox="0 0 24 24" fill="none">
  <g clip-path="url(#clip0_1_128)">
    <path d="M12.6667 2.66666C7.14669 2.66666 2.66669 7.14666 2.66669 12.6667C2.66669 18.1867 7.14669 22.6667 12.6667 22.6667C18.1867 22.6667 22.6667 18.1867 22.6667 12.6667C22.6667 7.14666 18.1867 2.66666 12.6667 2.66666ZM11.6667 20.5967C7.71669 20.1067 4.66669 16.7467 4.66669 12.6667C4.66669 12.0467 4.74669 11.4567 4.87669 10.8767L9.66669 15.6667V16.6667C9.66669 17.7667 10.5667 18.6667 11.6667 18.6667V20.5967ZM18.5667 18.0567C18.3067 17.2467 17.5667 16.6667 16.6667 16.6667H15.6667V13.6667C15.6667 13.1167 15.2167 12.6667 14.6667 12.6667H8.66669V10.6667H10.6667C11.2167 10.6667 11.6667 10.2167 11.6667 9.66666V7.66666H13.6667C14.7667 7.66666 15.6667 6.76666 15.6667 5.66666V5.25666C18.5967 6.44666 20.6667 9.31666 20.6667 12.6667C20.6667 14.7467 19.8667 16.6367 18.5667 18.0567Z" fill="#828282"/>
  </g>
  <defs>
    <clipPath id="clip0_1_128">
      <rect width="24" height="24" fill="white"/>
    </clipPath>
  </defs>
</svg>