<?xml version="1.0" encoding="UTF-8"?>
<svg viewBox="0 0 300 191" xmlns="http://www.w3.org/2000/svg">
 <g transform="translate(0 191) scale(.1 -.1)" fill="#8c7d32">
  <path d="m1637 1783c-119-70-217-130-217-133s128-224 284-490l283-485 302-3 302-2-18 33c-43 80-708 1207-713 1207-3 0-103-57-223-127z"/>
  <path d="m1105 1345c-115-68-211-128-213-133-2-6 67-128 153-273 152-258 155-264 155-321v-58h120v110h480v-187l-42 21c-59 29-166 28-224-2-56-29-103-78-127-131-24-56-26-151-3-206 21-50 78-110 131-138 56-29 164-29 223 0 40 20 42 20 42 2 0-16 8-19 60-19h60v659l-52 3-52 3-240 397c-133 219-245 397-251 397-5 0-104-56-220-124zm580-936c138-38 155-231 25-283-53-21-87-20-130 3-50 26-80 74-80 128 0 78 38 132 109 153 35 11 31 11 76-1z"/>
  <path d="m575 904c-116-68-210-129-210-136s11-32 25-55l25-43h595v-187l-42 21c-59 29-166 28-224-2-56-29-103-78-127-131-24-56-26-151-3-206 21-50 78-110 131-138 56-29 164-29 223 0 40 20 42 20 42 2 0-16 8-19 60-19h60v659l-52 3-53 3-110 178c-60 97-114 177-120 176-5-1-104-57-220-125zm360-513c44-24 79-99 70-152-20-116-160-166-250-88-87 77-60 215 50 254 44 16 85 12 130-14z"/>
  <path d="m172 512c-187-67-232-316-81-445 79-68 191-83 281-38 37 18 38 18 38 0 0-16 8-19 60-19h60v520h-60c-53 0-60-2-60-20 0-24-3-24-40-5-49 25-137 28-198 7zm129-103c131-44 146-220 24-279-51-25-78-25-132 0-55 25-83 70-83 135 0 72 39 124 108 145 38 12 45 11 83-1z"/>
  <path d="m1200 270v-260h120v520h-120v-260z"/>
  <path d="m2175 521c-76-20-145-77-176-146-23-51-25-161-4-213 20-47 78-108 130-135 56-29 164-29 223 0 40 20 42 20 42 2 0-17 8-19 60-19h60l-2 257-3 258-57 3c-56 3-58 2-58-21v-24l-39 19c-44 22-131 31-176 19zm145-130c64-46 88-128 55-190-75-145-285-97-285 65 0 64 28 109 83 135 49 23 108 19 147-10z"/>
  <path d="m2688 520c-122-37-158-184-63-258 24-19 44-25 178-52 68-14 88-37 63-75-18-27-70-41-113-30-32 8-73 42-73 62 0 9-17 13-60 13-67 0-71-5-46-63 17-41 74-91 121-107 58-19 184-9 228 19 51 31 77 78 77 137 0 97-56 144-195 163-106 15-144 50-93 85 44 31 130 15 150-29 10-23 17-25 70-25 63 0 67 5 47 57-27 72-100 113-199 112-36 0-77-4-92-9z"/>
 </g>
</svg>
