<svg xmlns="http://www.w3.org/2000/svg" width="24" height="24" viewBox="0 0 24 24" fill="none">
  <path d="M20.0404 15.6386L17.2125 15.3158C16.5333 15.2378 15.8653 15.4716 15.3866 15.9504L13.338 17.999C10.1872 16.3957 7.60425 13.8239 6.00102 10.6619L8.06073 8.60221C8.53947 8.12347 8.77327 7.45545 8.69534 6.77631L8.37246 3.97064C8.23886 2.84615 7.29251 2 6.15689 2H4.23079C2.97271 2 1.92616 3.04656 2.00409 4.30465C2.59417 13.8127 10.1984 21.4058 19.6953 21.9959C20.9533 22.0738 21.9999 21.0273 21.9999 19.7692V17.8431C22.011 16.7186 21.1649 15.7722 20.0404 15.6386Z" fill="#4F4F4F"/>
</svg>